<?xml version="1.0" encoding="utf-8"?>
<!-- Generator: Adobe Illustrator 19.0.0, SVG Export Plug-In . SVG Version: 6.00 Build 0)  -->
<svg version="1.1" xmlns="http://www.w3.org/2000/svg" xmlns:xlink="http://www.w3.org/1999/xlink" x="0px" y="0px"
	 viewBox="0 0 170.1 170.1" style="enable-background:new 0 0 170.1 170.1;" xml:space="preserve">
<style type="text/css">
	.st0{display:none;}
	.st1{display:inline;}
	.st2{fill:none;stroke:#232323;stroke-width:0.2835;stroke-linecap:round;stroke-linejoin:round;}
	.st3{fill:none;stroke:#232323;stroke-width:0.2835;stroke-linecap:round;stroke-linejoin:round;stroke-dasharray:0,0.7087;}
	.st4{fill:none;stroke:#BBC0FF;stroke-width:0.7087;stroke-linecap:round;stroke-linejoin:round;}
	.st5{fill:#BBC0FF;fill-opacity:0.47;stroke:#BBC0FF;stroke-miterlimit:10;}
	.st6{fill:none;stroke:#BBC0FF;stroke-width:1.4173;stroke-linecap:round;stroke-linejoin:round;}
	.st7{fill:#000E19;}
</style>
<g id="aux" class="st0">
	<g class="st1">
		<g>
			<line class="st2" x1="153.1" y1="130.4" x2="153.1" y2="130.4"/>
			<line class="st3" x1="152.4" y1="130.4" x2="17.4" y2="130.4"/>
			<line class="st2" x1="17" y1="130.4" x2="17" y2="130.4"/>
		</g>
	</g>
	<g class="st1">
		<g>
			<line class="st2" x1="153.1" y1="124.7" x2="153.1" y2="124.7"/>
			<line class="st3" x1="152.4" y1="124.7" x2="17.4" y2="124.7"/>
			<line class="st2" x1="17" y1="124.7" x2="17" y2="124.7"/>
		</g>
	</g>
	<g class="st1">
		<g>
			<line class="st2" x1="153.1" y1="119.1" x2="153.1" y2="119.1"/>
			<line class="st3" x1="152.4" y1="119.1" x2="17.4" y2="119.1"/>
			<line class="st2" x1="17" y1="119.1" x2="17" y2="119.1"/>
		</g>
	</g>
	<g class="st1">
		<g>
			<line class="st2" x1="153.1" y1="113.4" x2="153.1" y2="113.4"/>
			<line class="st3" x1="152.4" y1="113.4" x2="17.4" y2="113.4"/>
			<line class="st2" x1="17" y1="113.4" x2="17" y2="113.4"/>
		</g>
	</g>
	<g class="st1">
		<g>
			<line class="st2" x1="153.1" y1="107.7" x2="153.1" y2="107.7"/>
			<line class="st3" x1="152.4" y1="107.7" x2="17.4" y2="107.7"/>
			<line class="st2" x1="17" y1="107.7" x2="17" y2="107.7"/>
		</g>
	</g>
	<g class="st1">
		<g>
			<line class="st2" x1="153.1" y1="102" x2="153.1" y2="102"/>
			<line class="st3" x1="152.4" y1="102" x2="17.4" y2="102"/>
			<line class="st2" x1="17" y1="102" x2="17" y2="102"/>
		</g>
	</g>
	<g class="st1">
		<g>
			<line class="st2" x1="153.1" y1="96.4" x2="153.1" y2="96.4"/>
			<line class="st3" x1="152.4" y1="96.4" x2="17.4" y2="96.4"/>
			<line class="st2" x1="17" y1="96.4" x2="17" y2="96.4"/>
		</g>
	</g>
	<g class="st1">
		<g>
			<line class="st2" x1="153.1" y1="90.7" x2="153.1" y2="90.7"/>
			<line class="st3" x1="152.4" y1="90.7" x2="17.4" y2="90.7"/>
			<line class="st2" x1="17" y1="90.7" x2="17" y2="90.7"/>
		</g>
	</g>
	<g class="st1">
		<g>
			<line class="st2" x1="153.1" y1="85" x2="153.1" y2="85"/>
			<line class="st3" x1="152.4" y1="85" x2="17.4" y2="85"/>
			<line class="st2" x1="17" y1="85" x2="17" y2="85"/>
		</g>
	</g>
	<g class="st1">
		<g>
			<line class="st2" x1="153.1" y1="79.4" x2="153.1" y2="79.4"/>
			<line class="st3" x1="152.4" y1="79.4" x2="17.4" y2="79.4"/>
			<line class="st2" x1="17" y1="79.4" x2="17" y2="79.4"/>
		</g>
	</g>
	<g class="st1">
		<g>
			<line class="st2" x1="153.1" y1="73.7" x2="153.1" y2="73.7"/>
			<line class="st3" x1="152.4" y1="73.7" x2="17.4" y2="73.7"/>
			<line class="st2" x1="17" y1="73.7" x2="17" y2="73.7"/>
		</g>
	</g>
	<g class="st1">
		<g>
			<line class="st2" x1="153.1" y1="136.1" x2="153.1" y2="136.1"/>
			<line class="st3" x1="152.4" y1="136.1" x2="17.4" y2="136.1"/>
			<line class="st2" x1="17" y1="136.1" x2="17" y2="136.1"/>
		</g>
	</g>
	<g class="st1">
		<g>
			<line class="st2" x1="153.1" y1="62.4" x2="153.1" y2="62.4"/>
			<line class="st3" x1="152.4" y1="62.4" x2="17.4" y2="62.4"/>
			<line class="st2" x1="17" y1="62.4" x2="17" y2="62.4"/>
		</g>
	</g>
	<g class="st1">
		<g>
			<line class="st2" x1="153.1" y1="56.7" x2="153.1" y2="56.7"/>
			<line class="st3" x1="152.4" y1="56.7" x2="17.4" y2="56.7"/>
			<line class="st2" x1="17" y1="56.7" x2="17" y2="56.7"/>
		</g>
	</g>
	<g class="st1">
		<g>
			<line class="st2" x1="153.1" y1="51" x2="153.1" y2="51"/>
			<line class="st3" x1="152.4" y1="51" x2="17.4" y2="51"/>
			<line class="st2" x1="17" y1="51" x2="17" y2="51"/>
		</g>
	</g>
	<g class="st1">
		<g>
			<line class="st2" x1="153.1" y1="45.4" x2="153.1" y2="45.4"/>
			<line class="st3" x1="152.4" y1="45.4" x2="17.4" y2="45.4"/>
			<line class="st2" x1="17" y1="45.4" x2="17" y2="45.4"/>
		</g>
	</g>
	<g class="st1">
		<g>
			<line class="st2" x1="153.1" y1="39.7" x2="153.1" y2="39.7"/>
			<line class="st3" x1="152.4" y1="39.7" x2="17.4" y2="39.7"/>
			<line class="st2" x1="17" y1="39.7" x2="17" y2="39.7"/>
		</g>
	</g>
	<g class="st1">
		<g>
			<line class="st2" x1="153.1" y1="34" x2="153.1" y2="34"/>
			<line class="st3" x1="152.4" y1="34" x2="17.4" y2="34"/>
			<line class="st2" x1="17" y1="34" x2="17" y2="34"/>
		</g>
	</g>
	<g class="st1">
		<g>
			<line class="st2" x1="153.1" y1="28.3" x2="153.1" y2="28.3"/>
			<line class="st3" x1="152.4" y1="28.3" x2="17.4" y2="28.3"/>
			<line class="st2" x1="17" y1="28.3" x2="17" y2="28.3"/>
		</g>
	</g>
	<g class="st1">
		<g>
			<line class="st2" x1="153.1" y1="141.7" x2="153.1" y2="141.7"/>
			<line class="st3" x1="152.4" y1="141.7" x2="17.4" y2="141.7"/>
			<line class="st2" x1="17" y1="141.7" x2="17" y2="141.7"/>
		</g>
	</g>
	<g class="st1">
		<g>
			<line class="st2" x1="28.3" y1="17" x2="28.3" y2="17"/>
			<line class="st3" x1="28.3" y1="17.7" x2="28.3" y2="152.7"/>
			<line class="st2" x1="28.3" y1="153.1" x2="28.3" y2="153.1"/>
		</g>
	</g>
	<g class="st1">
		<g>
			<line class="st2" x1="34" y1="17" x2="34" y2="17"/>
			<line class="st3" x1="34" y1="17.7" x2="34" y2="152.7"/>
			<line class="st2" x1="34" y1="153.1" x2="34" y2="153.1"/>
		</g>
	</g>
	<g class="st1">
		<g>
			<line class="st2" x1="39.7" y1="17" x2="39.7" y2="17"/>
			<line class="st3" x1="39.7" y1="17.7" x2="39.7" y2="152.7"/>
			<line class="st2" x1="39.7" y1="153.1" x2="39.7" y2="153.1"/>
		</g>
	</g>
	<g class="st1">
		<g>
			<line class="st2" x1="45.4" y1="17" x2="45.4" y2="17"/>
			<line class="st3" x1="45.4" y1="17.7" x2="45.4" y2="152.7"/>
			<line class="st2" x1="45.4" y1="153.1" x2="45.4" y2="153.1"/>
		</g>
	</g>
	<g class="st1">
		<g>
			<line class="st2" x1="51" y1="17" x2="51" y2="17"/>
			<line class="st3" x1="51" y1="17.7" x2="51" y2="152.7"/>
			<line class="st2" x1="51" y1="153.1" x2="51" y2="153.1"/>
		</g>
	</g>
	<g class="st1">
		<g>
			<line class="st2" x1="56.7" y1="17" x2="56.7" y2="17"/>
			<line class="st3" x1="56.7" y1="17.7" x2="56.7" y2="152.7"/>
			<line class="st2" x1="56.7" y1="153.1" x2="56.7" y2="153.1"/>
		</g>
	</g>
	<g class="st1">
		<g>
			<line class="st2" x1="62.4" y1="17" x2="62.4" y2="17"/>
			<line class="st3" x1="62.4" y1="17.7" x2="62.4" y2="152.7"/>
			<line class="st2" x1="62.4" y1="153.1" x2="62.4" y2="153.1"/>
		</g>
	</g>
	<g class="st1">
		<g>
			<line class="st2" x1="68" y1="17" x2="68" y2="17"/>
			<line class="st3" x1="68" y1="17.7" x2="68" y2="152.7"/>
			<line class="st2" x1="68" y1="153.1" x2="68" y2="153.1"/>
		</g>
	</g>
	<g class="st1">
		<g>
			<line class="st2" x1="73.7" y1="17" x2="73.7" y2="17"/>
			<line class="st3" x1="73.7" y1="17.7" x2="73.7" y2="152.7"/>
			<line class="st2" x1="73.7" y1="153.1" x2="73.7" y2="153.1"/>
		</g>
	</g>
	<g class="st1">
		<g>
			<line class="st2" x1="79.4" y1="17" x2="79.4" y2="17"/>
			<line class="st3" x1="79.4" y1="17.7" x2="79.4" y2="152.7"/>
			<line class="st2" x1="79.4" y1="153.1" x2="79.4" y2="153.1"/>
		</g>
	</g>
	<g class="st1">
		<g>
			<line class="st2" x1="85" y1="17" x2="85" y2="17"/>
			<line class="st3" x1="85" y1="17.7" x2="85" y2="152.7"/>
			<line class="st2" x1="85" y1="153.1" x2="85" y2="153.1"/>
		</g>
	</g>
	<g class="st1">
		<g>
			<line class="st2" x1="90.7" y1="17" x2="90.7" y2="17"/>
			<line class="st3" x1="90.7" y1="17.7" x2="90.7" y2="152.7"/>
			<line class="st2" x1="90.7" y1="153.1" x2="90.7" y2="153.1"/>
		</g>
	</g>
	<g class="st1">
		<g>
			<line class="st2" x1="96.4" y1="17" x2="96.4" y2="17"/>
			<line class="st3" x1="96.4" y1="17.7" x2="96.4" y2="152.7"/>
			<line class="st2" x1="96.4" y1="153.1" x2="96.4" y2="153.1"/>
		</g>
	</g>
	<g class="st1">
		<g>
			<line class="st2" x1="102" y1="17" x2="102" y2="17"/>
			<line class="st3" x1="102" y1="17.7" x2="102" y2="152.7"/>
			<line class="st2" x1="102" y1="153.1" x2="102" y2="153.1"/>
		</g>
	</g>
	<g class="st1">
		<g>
			<line class="st2" x1="107.7" y1="17" x2="107.7" y2="17"/>
			<line class="st3" x1="107.7" y1="17.7" x2="107.7" y2="152.7"/>
			<line class="st2" x1="107.7" y1="153.1" x2="107.7" y2="153.1"/>
		</g>
	</g>
	<g class="st1">
		<g>
			<line class="st2" x1="113.4" y1="17" x2="113.4" y2="17"/>
			<line class="st3" x1="113.4" y1="17.7" x2="113.4" y2="152.7"/>
			<line class="st2" x1="113.4" y1="153.1" x2="113.4" y2="153.1"/>
		</g>
	</g>
	<g class="st1">
		<g>
			<line class="st2" x1="119.1" y1="17" x2="119.1" y2="17"/>
			<line class="st3" x1="119.1" y1="17.7" x2="119.1" y2="152.7"/>
			<line class="st2" x1="119.1" y1="153.1" x2="119.1" y2="153.1"/>
		</g>
	</g>
	<g class="st1">
		<g>
			<line class="st2" x1="124.7" y1="17" x2="124.7" y2="17"/>
			<line class="st3" x1="124.7" y1="17.7" x2="124.7" y2="152.7"/>
			<line class="st2" x1="124.7" y1="153.1" x2="124.7" y2="153.1"/>
		</g>
	</g>
	<g class="st1">
		<g>
			<line class="st2" x1="130.4" y1="17" x2="130.4" y2="17"/>
			<line class="st3" x1="130.4" y1="17.7" x2="130.4" y2="152.7"/>
			<line class="st2" x1="130.4" y1="153.1" x2="130.4" y2="153.1"/>
		</g>
	</g>
	<g class="st1">
		<g>
			<line class="st2" x1="136.1" y1="17" x2="136.1" y2="17"/>
			<line class="st3" x1="136.1" y1="17.7" x2="136.1" y2="152.7"/>
			<line class="st2" x1="136.1" y1="153.1" x2="136.1" y2="153.1"/>
		</g>
	</g>
	<g class="st1">
		<g>
			<line class="st2" x1="141.7" y1="17" x2="141.7" y2="17"/>
			<line class="st3" x1="141.7" y1="17.7" x2="141.7" y2="152.7"/>
			<line class="st2" x1="141.7" y1="153.1" x2="141.7" y2="153.1"/>
		</g>
	</g>
	<g class="st1">
		<g>
			<line class="st2" x1="153.1" y1="68" x2="153.1" y2="68"/>
			<line class="st3" x1="152.4" y1="68" x2="17.4" y2="68"/>
			<line class="st2" x1="17" y1="68" x2="17" y2="68"/>
		</g>
	</g>
</g>
<g id="_x3F__x3F__x3F_">
	<rect x="85" y="28.3" class="st4" width="56.7" height="56.7"/>
	<rect x="28.3" y="85" class="st4" width="56.7" height="56.7"/>
	<rect x="28.3" y="28.3" class="st4" width="56.7" height="56.7"/>
	<circle class="st4" cx="119.1" cy="102" r="22.7"/>
	<polygon class="st5" points="28.3,28.3 141.7,28.3 85,70.9 	"/>
	<path class="st5" d="M96.4,141.7c0-13.2,0-26.5,0-39.7c0-7.1,3.4-13.9,9.1-18.1c4.5-3.4,9.1-6.8,13.6-10.2c0,22.7,0,45.4,0,68
		C111.5,141.7,103.9,141.7,96.4,141.7z"/>
	<path class="st5" d="M73.7,141.7c0-13.2,0-26.5,0-39.7c0-7.1-3.4-13.9-9.1-18.1c-4.5-3.4-9.1-6.8-13.6-10.2c0,22.7,0,45.4,0,68
		C58.6,141.7,66.1,141.7,73.7,141.7z"/>
	<rect x="28.3" y="28.3" class="st6" width="113.4" height="113.4"/>
	<line class="st4" x1="164.4" y1="99.2" x2="5.7" y2="99.2"/>
	<line class="st4" x1="164.4" y1="70.9" x2="5.7" y2="70.9"/>
	<line class="st4" x1="96.4" y1="164.4" x2="96.4" y2="5.7"/>
	<line class="st4" x1="73.7" y1="164.4" x2="73.7" y2="5.7"/>
	<line class="st4" x1="51" y1="164.4" x2="51" y2="5.7"/>
	<circle class="st4" cx="51" cy="102" r="22.7"/>
	<line class="st4" x1="119.1" y1="164.4" x2="119.1" y2="5.7"/>
	<polyline class="st4" points="28.3,56.7 85,99.2 141.7,56.7 	"/>
	<polyline class="st4" points="28.3,42.5 85,85 141.7,42.5 	"/>
	<polyline class="st4" points="28.3,28.3 85,70.9 141.7,28.3 	"/>
	<rect x="85" y="85" class="st4" width="56.7" height="56.7"/>
</g>
<g id="图层_4" class="st0">
	<g class="st1">
		<polygon class="st7" points="28.3,28.3 85,70.9 141.7,28.3 		"/>
		<polygon class="st7" points="28.3,28.3 141.7,28.3 85,70.9 		"/>
		<path class="st7" d="M51,141.7c0-14,0-28.1,0-42.1c0-7,0-14,0-21.1c0-0.9,0-1.8,0-2.6c0-0.4,0-0.9,0-1.3c0-0.3-0.1-1,0.3-0.7
			c1.4,1.1,2.8,2.1,4.2,3.2c2.8,2.1,5.6,4.2,8.4,6.3c5.8,4.4,9.5,10.4,9.7,17.8c0.2,7,0,14,0,21.1c0,3.5,0,7,0,10.5
			c0,1.8,0,3.5,0,5.3c0,0.9,0,1.8,0,2.6c0,0.4,0.4,1-0.3,1c-0.4,0-0.9,0-1.3,0C65.1,141.7,58,141.7,51,141.7z"/>
		<path class="st7" d="M96.4,141.7c0-7,0-14,0-21.1c0-3.5,0-7,0-10.6c0-3.5-0.2-7,0.1-10.5c0.9-8.1,4.8-12.6,10.9-17.2
			c2.8-2.1,5.6-4.2,8.4-6.3c0.7-0.5,1.4-1.1,2.1-1.6c0.4-0.3,0.7-0.5,1.1-0.8c0.3-0.2,0.1,0.3,0.1,0.5c0,0.2,0,0.4,0,0.7
			c0,1.8,0,3.5,0,5.3c0,14,0,28.1,0,42.1c0,3.5,0,7,0,10.5c0,1.8,0,3.5,0,5.3c0,0.9,0,1.8,0,2.6c0,0.4,0.4,1-0.3,1
			c-0.4,0-0.9,0-1.3,0C110.4,141.7,103.4,141.7,96.4,141.7z"/>
		<path class="st7" d="M96.4,141.7c0-13.2,0-26.5,0-39.7c0-7.1,3.4-13.9,9.1-18.1c4.5-3.4,9.1-6.8,13.6-10.2c0,22.7,0,45.4,0,68
			C111.5,141.7,103.9,141.7,96.4,141.7z"/>
		<path class="st7" d="M73.7,141.7c0-13.2,0-26.5,0-39.7c0-7.1-3.4-13.9-9.1-18.1c-4.5-3.4-9.1-6.8-13.6-10.2c0,22.7,0,45.4,0,68
			C58.6,141.7,66.1,141.7,73.7,141.7z"/>
	</g>
</g>
<g id="Viewport_Boundary">
</g>
</svg>
