<?xml version="1.0" encoding="utf-8"?>
<!-- Generator: Adobe Illustrator 19.0.0, SVG Export Plug-In . SVG Version: 6.00 Build 0)  -->
<svg version="1.1" id="图层_1" xmlns="http://www.w3.org/2000/svg" xmlns:xlink="http://www.w3.org/1999/xlink" x="0px" y="0px"
	 viewBox="-426 299.9 170.1 170.1" style="enable-background:new -426 299.9 170.1 170.1;" xml:space="preserve">
<style type="text/css">
	.st0{display:none;}
	.st1{display:inline;}
	.st2{fill:none;stroke:#232323;stroke-width:0.2835;stroke-linecap:round;stroke-linejoin:round;}
	.st3{fill:none;stroke:#232323;stroke-width:0.2835;stroke-linecap:round;stroke-linejoin:round;stroke-dasharray:0,0.7087;}
	.st4{display:inline;fill:none;stroke:#BBC0FF;stroke-width:0.7087;stroke-linecap:round;stroke-linejoin:round;}
	.st5{display:inline;fill:#BBC0FF;fill-opacity:0.47;stroke:#BBC0FF;stroke-miterlimit:10;}
	.st6{display:inline;fill:none;stroke:#BBC0FF;stroke-width:1.4173;stroke-linecap:round;stroke-linejoin:round;}
	.st7{fill:#FEFFD2;}
</style>
<g id="aux" class="st0">
	<g class="st1">
		<g>
			<line class="st2" x1="-272.9" y1="430.3" x2="-272.9" y2="430.3"/>
			<line class="st3" x1="-273.6" y1="430.3" x2="-408.6" y2="430.3"/>
			<line class="st2" x1="-409" y1="430.3" x2="-409" y2="430.3"/>
		</g>
	</g>
	<g class="st1">
		<g>
			<line class="st2" x1="-272.9" y1="424.6" x2="-272.9" y2="424.6"/>
			<line class="st3" x1="-273.6" y1="424.6" x2="-408.6" y2="424.6"/>
			<line class="st2" x1="-409" y1="424.6" x2="-409" y2="424.6"/>
		</g>
	</g>
	<g class="st1">
		<g>
			<line class="st2" x1="-272.9" y1="419" x2="-272.9" y2="419"/>
			<line class="st3" x1="-273.6" y1="419" x2="-408.6" y2="419"/>
			<line class="st2" x1="-409" y1="419" x2="-409" y2="419"/>
		</g>
	</g>
	<g class="st1">
		<g>
			<line class="st2" x1="-272.9" y1="413.3" x2="-272.9" y2="413.3"/>
			<line class="st3" x1="-273.6" y1="413.3" x2="-408.6" y2="413.3"/>
			<line class="st2" x1="-409" y1="413.3" x2="-409" y2="413.3"/>
		</g>
	</g>
	<g class="st1">
		<g>
			<line class="st2" x1="-272.9" y1="407.6" x2="-272.9" y2="407.6"/>
			<line class="st3" x1="-273.6" y1="407.6" x2="-408.6" y2="407.6"/>
			<line class="st2" x1="-409" y1="407.6" x2="-409" y2="407.6"/>
		</g>
	</g>
	<g class="st1">
		<g>
			<line class="st2" x1="-272.9" y1="401.9" x2="-272.9" y2="401.9"/>
			<line class="st3" x1="-273.6" y1="401.9" x2="-408.6" y2="401.9"/>
			<line class="st2" x1="-409" y1="401.9" x2="-409" y2="401.9"/>
		</g>
	</g>
	<g class="st1">
		<g>
			<line class="st2" x1="-272.9" y1="396.3" x2="-272.9" y2="396.3"/>
			<line class="st3" x1="-273.6" y1="396.3" x2="-408.6" y2="396.3"/>
			<line class="st2" x1="-409" y1="396.3" x2="-409" y2="396.3"/>
		</g>
	</g>
	<g class="st1">
		<g>
			<line class="st2" x1="-272.9" y1="390.6" x2="-272.9" y2="390.6"/>
			<line class="st3" x1="-273.6" y1="390.6" x2="-408.6" y2="390.6"/>
			<line class="st2" x1="-409" y1="390.6" x2="-409" y2="390.6"/>
		</g>
	</g>
	<g class="st1">
		<g>
			<line class="st2" x1="-272.9" y1="384.9" x2="-272.9" y2="384.9"/>
			<line class="st3" x1="-273.6" y1="384.9" x2="-408.6" y2="384.9"/>
			<line class="st2" x1="-409" y1="384.9" x2="-409" y2="384.9"/>
		</g>
	</g>
	<g class="st1">
		<g>
			<line class="st2" x1="-272.9" y1="379.3" x2="-272.9" y2="379.3"/>
			<line class="st3" x1="-273.6" y1="379.3" x2="-408.6" y2="379.3"/>
			<line class="st2" x1="-409" y1="379.3" x2="-409" y2="379.3"/>
		</g>
	</g>
	<g class="st1">
		<g>
			<line class="st2" x1="-272.9" y1="373.6" x2="-272.9" y2="373.6"/>
			<line class="st3" x1="-273.6" y1="373.6" x2="-408.6" y2="373.6"/>
			<line class="st2" x1="-409" y1="373.6" x2="-409" y2="373.6"/>
		</g>
	</g>
	<g class="st1">
		<g>
			<line class="st2" x1="-272.9" y1="436" x2="-272.9" y2="436"/>
			<line class="st3" x1="-273.6" y1="436" x2="-408.6" y2="436"/>
			<line class="st2" x1="-409" y1="436" x2="-409" y2="436"/>
		</g>
	</g>
	<g class="st1">
		<g>
			<line class="st2" x1="-272.9" y1="362.3" x2="-272.9" y2="362.3"/>
			<line class="st3" x1="-273.6" y1="362.3" x2="-408.6" y2="362.3"/>
			<line class="st2" x1="-409" y1="362.3" x2="-409" y2="362.3"/>
		</g>
	</g>
	<g class="st1">
		<g>
			<line class="st2" x1="-272.9" y1="356.6" x2="-272.9" y2="356.6"/>
			<line class="st3" x1="-273.6" y1="356.6" x2="-408.6" y2="356.6"/>
			<line class="st2" x1="-409" y1="356.6" x2="-409" y2="356.6"/>
		</g>
	</g>
	<g class="st1">
		<g>
			<line class="st2" x1="-272.9" y1="350.9" x2="-272.9" y2="350.9"/>
			<line class="st3" x1="-273.6" y1="350.9" x2="-408.6" y2="350.9"/>
			<line class="st2" x1="-409" y1="350.9" x2="-409" y2="350.9"/>
		</g>
	</g>
	<g class="st1">
		<g>
			<line class="st2" x1="-272.9" y1="345.3" x2="-272.9" y2="345.3"/>
			<line class="st3" x1="-273.6" y1="345.3" x2="-408.6" y2="345.3"/>
			<line class="st2" x1="-409" y1="345.3" x2="-409" y2="345.3"/>
		</g>
	</g>
	<g class="st1">
		<g>
			<line class="st2" x1="-272.9" y1="339.6" x2="-272.9" y2="339.6"/>
			<line class="st3" x1="-273.6" y1="339.6" x2="-408.6" y2="339.6"/>
			<line class="st2" x1="-409" y1="339.6" x2="-409" y2="339.6"/>
		</g>
	</g>
	<g class="st1">
		<g>
			<line class="st2" x1="-272.9" y1="333.9" x2="-272.9" y2="333.9"/>
			<line class="st3" x1="-273.6" y1="333.9" x2="-408.6" y2="333.9"/>
			<line class="st2" x1="-409" y1="333.9" x2="-409" y2="333.9"/>
		</g>
	</g>
	<g class="st1">
		<g>
			<line class="st2" x1="-272.9" y1="328.2" x2="-272.9" y2="328.2"/>
			<line class="st3" x1="-273.6" y1="328.2" x2="-408.6" y2="328.2"/>
			<line class="st2" x1="-409" y1="328.2" x2="-409" y2="328.2"/>
		</g>
	</g>
	<g class="st1">
		<g>
			<line class="st2" x1="-272.9" y1="441.6" x2="-272.9" y2="441.6"/>
			<line class="st3" x1="-273.6" y1="441.6" x2="-408.6" y2="441.6"/>
			<line class="st2" x1="-409" y1="441.6" x2="-409" y2="441.6"/>
		</g>
	</g>
	<g class="st1">
		<g>
			<line class="st2" x1="-397.7" y1="316.9" x2="-397.7" y2="316.9"/>
			<line class="st3" x1="-397.7" y1="317.6" x2="-397.7" y2="452.6"/>
			<line class="st2" x1="-397.7" y1="453" x2="-397.7" y2="453"/>
		</g>
	</g>
	<g class="st1">
		<g>
			<line class="st2" x1="-392" y1="316.9" x2="-392" y2="316.9"/>
			<line class="st3" x1="-392" y1="317.6" x2="-392" y2="452.6"/>
			<line class="st2" x1="-392" y1="453" x2="-392" y2="453"/>
		</g>
	</g>
	<g class="st1">
		<g>
			<line class="st2" x1="-386.3" y1="316.9" x2="-386.3" y2="316.9"/>
			<line class="st3" x1="-386.3" y1="317.6" x2="-386.3" y2="452.6"/>
			<line class="st2" x1="-386.3" y1="453" x2="-386.3" y2="453"/>
		</g>
	</g>
	<g class="st1">
		<g>
			<line class="st2" x1="-380.6" y1="316.9" x2="-380.6" y2="316.9"/>
			<line class="st3" x1="-380.6" y1="317.6" x2="-380.6" y2="452.6"/>
			<line class="st2" x1="-380.6" y1="453" x2="-380.6" y2="453"/>
		</g>
	</g>
	<g class="st1">
		<g>
			<line class="st2" x1="-375" y1="316.9" x2="-375" y2="316.9"/>
			<line class="st3" x1="-375" y1="317.6" x2="-375" y2="452.6"/>
			<line class="st2" x1="-375" y1="453" x2="-375" y2="453"/>
		</g>
	</g>
	<g class="st1">
		<g>
			<line class="st2" x1="-369.3" y1="316.9" x2="-369.3" y2="316.9"/>
			<line class="st3" x1="-369.3" y1="317.6" x2="-369.3" y2="452.6"/>
			<line class="st2" x1="-369.3" y1="453" x2="-369.3" y2="453"/>
		</g>
	</g>
	<g class="st1">
		<g>
			<line class="st2" x1="-363.6" y1="316.9" x2="-363.6" y2="316.9"/>
			<line class="st3" x1="-363.6" y1="317.6" x2="-363.6" y2="452.6"/>
			<line class="st2" x1="-363.6" y1="453" x2="-363.6" y2="453"/>
		</g>
	</g>
	<g class="st1">
		<g>
			<line class="st2" x1="-358" y1="316.9" x2="-358" y2="316.9"/>
			<line class="st3" x1="-358" y1="317.6" x2="-358" y2="452.6"/>
			<line class="st2" x1="-358" y1="453" x2="-358" y2="453"/>
		</g>
	</g>
	<g class="st1">
		<g>
			<line class="st2" x1="-352.3" y1="316.9" x2="-352.3" y2="316.9"/>
			<line class="st3" x1="-352.3" y1="317.6" x2="-352.3" y2="452.6"/>
			<line class="st2" x1="-352.3" y1="453" x2="-352.3" y2="453"/>
		</g>
	</g>
	<g class="st1">
		<g>
			<line class="st2" x1="-346.6" y1="316.9" x2="-346.6" y2="316.9"/>
			<line class="st3" x1="-346.6" y1="317.6" x2="-346.6" y2="452.6"/>
			<line class="st2" x1="-346.6" y1="453" x2="-346.6" y2="453"/>
		</g>
	</g>
	<g class="st1">
		<g>
			<line class="st2" x1="-341" y1="316.9" x2="-341" y2="316.9"/>
			<line class="st3" x1="-341" y1="317.6" x2="-341" y2="452.6"/>
			<line class="st2" x1="-341" y1="453" x2="-341" y2="453"/>
		</g>
	</g>
	<g class="st1">
		<g>
			<line class="st2" x1="-335.3" y1="316.9" x2="-335.3" y2="316.9"/>
			<line class="st3" x1="-335.3" y1="317.6" x2="-335.3" y2="452.6"/>
			<line class="st2" x1="-335.3" y1="453" x2="-335.3" y2="453"/>
		</g>
	</g>
	<g class="st1">
		<g>
			<line class="st2" x1="-329.6" y1="316.9" x2="-329.6" y2="316.9"/>
			<line class="st3" x1="-329.6" y1="317.6" x2="-329.6" y2="452.6"/>
			<line class="st2" x1="-329.6" y1="453" x2="-329.6" y2="453"/>
		</g>
	</g>
	<g class="st1">
		<g>
			<line class="st2" x1="-324" y1="316.9" x2="-324" y2="316.9"/>
			<line class="st3" x1="-324" y1="317.6" x2="-324" y2="452.6"/>
			<line class="st2" x1="-324" y1="453" x2="-324" y2="453"/>
		</g>
	</g>
	<g class="st1">
		<g>
			<line class="st2" x1="-318.3" y1="316.9" x2="-318.3" y2="316.9"/>
			<line class="st3" x1="-318.3" y1="317.6" x2="-318.3" y2="452.6"/>
			<line class="st2" x1="-318.3" y1="453" x2="-318.3" y2="453"/>
		</g>
	</g>
	<g class="st1">
		<g>
			<line class="st2" x1="-312.6" y1="316.9" x2="-312.6" y2="316.9"/>
			<line class="st3" x1="-312.6" y1="317.6" x2="-312.6" y2="452.6"/>
			<line class="st2" x1="-312.6" y1="453" x2="-312.6" y2="453"/>
		</g>
	</g>
	<g class="st1">
		<g>
			<line class="st2" x1="-306.9" y1="316.9" x2="-306.9" y2="316.9"/>
			<line class="st3" x1="-306.9" y1="317.6" x2="-306.9" y2="452.6"/>
			<line class="st2" x1="-306.9" y1="453" x2="-306.9" y2="453"/>
		</g>
	</g>
	<g class="st1">
		<g>
			<line class="st2" x1="-301.3" y1="316.9" x2="-301.3" y2="316.9"/>
			<line class="st3" x1="-301.3" y1="317.6" x2="-301.3" y2="452.6"/>
			<line class="st2" x1="-301.3" y1="453" x2="-301.3" y2="453"/>
		</g>
	</g>
	<g class="st1">
		<g>
			<line class="st2" x1="-295.6" y1="316.9" x2="-295.6" y2="316.9"/>
			<line class="st3" x1="-295.6" y1="317.6" x2="-295.6" y2="452.6"/>
			<line class="st2" x1="-295.6" y1="453" x2="-295.6" y2="453"/>
		</g>
	</g>
	<g class="st1">
		<g>
			<line class="st2" x1="-289.9" y1="316.9" x2="-289.9" y2="316.9"/>
			<line class="st3" x1="-289.9" y1="317.6" x2="-289.9" y2="452.6"/>
			<line class="st2" x1="-289.9" y1="453" x2="-289.9" y2="453"/>
		</g>
	</g>
	<g class="st1">
		<g>
			<line class="st2" x1="-284.3" y1="316.9" x2="-284.3" y2="316.9"/>
			<line class="st3" x1="-284.3" y1="317.6" x2="-284.3" y2="452.6"/>
			<line class="st2" x1="-284.3" y1="453" x2="-284.3" y2="453"/>
		</g>
	</g>
	<g class="st1">
		<g>
			<line class="st2" x1="-272.9" y1="367.9" x2="-272.9" y2="367.9"/>
			<line class="st3" x1="-273.6" y1="367.9" x2="-408.6" y2="367.9"/>
			<line class="st2" x1="-409" y1="367.9" x2="-409" y2="367.9"/>
		</g>
	</g>
</g>
<g id="_x3F__x3F__x3F_" class="st0">
	<rect x="-341" y="328.2" class="st4" width="56.7" height="56.7"/>
	<rect x="-397.7" y="384.9" class="st4" width="56.7" height="56.7"/>
	<rect x="-397.7" y="328.2" class="st4" width="56.7" height="56.7"/>
	<circle class="st4" cx="-306.9" cy="401.9" r="22.7"/>
	<polygon class="st5" points="-397.7,328.2 -284.3,328.2 -341,370.8 	"/>
	<path class="st5" d="M-329.6,441.6c0-13.2,0-26.5,0-39.7c0-7.1,3.4-13.9,9.1-18.1c4.5-3.4,9.1-6.8,13.6-10.2c0,22.7,0,45.4,0,68
		C-314.5,441.6-322.1,441.6-329.6,441.6z"/>
	<path class="st5" d="M-352.3,441.6c0-13.2,0-26.5,0-39.7c0-7.1-3.4-13.9-9.1-18.1c-4.5-3.4-9.1-6.8-13.6-10.2c0,22.7,0,45.4,0,68
		C-367.4,441.6-359.9,441.6-352.3,441.6z"/>
	<rect x="-397.7" y="328.2" class="st6" width="113.4" height="113.4"/>
	<line class="st4" x1="-261.6" y1="399.1" x2="-420.3" y2="399.1"/>
	<line class="st4" x1="-261.6" y1="370.8" x2="-420.3" y2="370.8"/>
	<line class="st4" x1="-329.6" y1="464.3" x2="-329.6" y2="305.6"/>
	<line class="st4" x1="-352.3" y1="464.3" x2="-352.3" y2="305.6"/>
	<line class="st4" x1="-375" y1="464.3" x2="-375" y2="305.6"/>
	<circle class="st4" cx="-375" cy="401.9" r="22.7"/>
	<line class="st4" x1="-306.9" y1="464.3" x2="-306.9" y2="305.6"/>
	<polyline class="st4" points="-397.7,356.6 -341,399.1 -284.3,356.6 	"/>
	<polyline class="st4" points="-397.7,342.4 -341,384.9 -284.3,342.4 	"/>
	<polyline class="st4" points="-397.7,328.2 -341,370.8 -284.3,328.2 	"/>
	<rect x="-341" y="384.9" class="st4" width="56.7" height="56.7"/>
</g>
<g id="图层_4">
	<g>
		<polygon class="st7" points="-397.7,328.2 -341,370.8 -284.3,328.2 		"/>
		<polygon class="st7" points="-397.7,328.2 -284.3,328.2 -341,370.8 		"/>
		<path class="st7" d="M-375,441.6c0-14,0-28.1,0-42.1c0-7,0-14,0-21.1c0-0.9,0-1.8,0-2.6c0-0.4,0-0.9,0-1.3c0-0.3-0.1-1,0.3-0.7
			c1.4,1.1,2.8,2.1,4.2,3.2c2.8,2.1,5.6,4.2,8.4,6.3c5.8,4.4,9.5,10.4,9.7,17.8c0.2,7,0,14,0,21.1c0,3.5,0,7,0,10.5
			c0,1.8,0,3.5,0,5.3c0,0.9,0,1.8,0,2.6c0,0.4,0.4,1-0.3,1c-0.4,0-0.9,0-1.3,0C-360.9,441.6-368,441.6-375,441.6z"/>
		<path class="st7" d="M-329.6,441.6c0-7,0-14,0-21.1c0-3.5,0-7,0-10.6c0-3.5-0.2-7,0.1-10.5c0.9-8.1,4.8-12.6,10.9-17.2
			c2.8-2.1,5.6-4.2,8.4-6.3c0.7-0.5,1.4-1.1,2.1-1.6c0.4-0.3,0.7-0.5,1.1-0.8c0.3-0.2,0.1,0.3,0.1,0.5c0,0.2,0,0.4,0,0.7
			c0,1.8,0,3.5,0,5.3c0,14,0,28.1,0,42.1c0,3.5,0,7,0,10.5c0,1.8,0,3.5,0,5.3c0,0.9,0,1.8,0,2.6c0,0.4,0.4,1-0.3,1
			c-0.4,0-0.9,0-1.3,0C-315.6,441.6-322.6,441.6-329.6,441.6z"/>
		<path class="st7" d="M-329.6,441.6c0-13.2,0-26.5,0-39.7c0-7.1,3.4-13.9,9.1-18.1c4.5-3.4,9.1-6.8,13.6-10.2c0,22.7,0,45.4,0,68
			C-314.5,441.6-322.1,441.6-329.6,441.6z"/>
		<path class="st7" d="M-352.3,441.6c0-13.2,0-26.5,0-39.7c0-7.1-3.4-13.9-9.1-18.1c-4.5-3.4-9.1-6.8-13.6-10.2c0,22.7,0,45.4,0,68
			C-367.4,441.6-359.9,441.6-352.3,441.6z"/>
	</g>
</g>
<g id="Viewport_Boundary">
</g>
</svg>
